<svg width="640" height="360" viewBox="0 0 640 360" xmlns="http://www.w3.org/2000/svg">
  <defs>
    <linearGradient id="womenCareBg" x1="0" y1="0" x2="1" y2="1">
      <stop offset="0%" stop-color="#fdf2f8" />
      <stop offset="100%" stop-color="#fce7f3" />
    </linearGradient>
    <radialGradient id="womenCareGlow" cx="0.5" cy="0.4" r="0.8">
      <stop offset="0%" stop-color="#f9a8d4" stop-opacity="0.9" />
      <stop offset="100%" stop-color="#db2777" stop-opacity="0" />
    </radialGradient>
    <linearGradient id="womenCareStroke" x1="0" y1="0" x2="1" y2="0">
      <stop offset="0%" stop-color="#ec4899" />
      <stop offset="100%" stop-color="#c026d3" />
    </linearGradient>
  </defs>
  <rect width="640" height="360" rx="32" fill="url(#womenCareBg)" />
  <circle cx="220" cy="140" r="96" fill="url(#womenCareGlow)" opacity="0.7" />
  <g fill="none" stroke="url(#womenCareStroke)" stroke-width="6" stroke-linecap="round">
    <path d="M140 120c50 -40 100 -40 150 0" />
    <path d="M140 160c50 40 100 40 150 0" opacity="0.5" />
    <path d="M460 110c40 0 60 40 40 70s-70 40 -110 30" />
  </g>
  <g>
    <rect x="360" y="80" width="180" height="200" rx="34" fill="#fff" opacity="0.9" />
    <rect x="374" y="104" width="152" height="36" rx="18" fill="#f472b6" opacity="0.8" />
    <rect x="374" y="156" width="120" height="18" rx="9" fill="#f9a8d4" />
    <rect x="374" y="182" width="152" height="18" rx="9" fill="#fed7e2" />
    <rect x="374" y="208" width="96" height="18" rx="9" fill="#fdf2f8" stroke="#f472b6" stroke-width="1.5" />
    <circle cx="498" cy="214" r="18" fill="#f472b6" opacity="0.7" />
  </g>
  <g>
    <circle cx="214" cy="245" r="46" fill="#ec4899" opacity="0.15" />
    <circle cx="214" cy="245" r="36" fill="#fff" opacity="0.9" />
    <path d="M198 245h32" stroke="#ec4899" stroke-width="4" stroke-linecap="round" />
    <path d="M214 229v32" stroke="#c026d3" stroke-width="4" stroke-linecap="round" />
  </g>
  <g fill="#701a75" font-family="'Inter','Segoe UI',sans-serif" font-size="16" font-weight="600">
    <text x="72" y="318">Rituales de autocuidado · Arte terapia</text>
    <text x="408" y="318" fill="#be185d" font-size="14">Círculos de mujeres</text>
  </g>
</svg>
