<svg width="640" height="360" viewBox="0 0 640 360" xmlns="http://www.w3.org/2000/svg">
  <defs>
    <linearGradient id="womenGardenBg" x1="0" y1="0" x2="1" y2="1">
      <stop offset="0%" stop-color="#fce7f3" />
      <stop offset="100%" stop-color="#ede9fe" />
    </linearGradient>
    <linearGradient id="womenGardenArc" x1="0" y1="0" x2="1" y2="1">
      <stop offset="0%" stop-color="#c026d3" />
      <stop offset="100%" stop-color="#7c3aed" />
    </linearGradient>
    <radialGradient id="womenGardenPulse" cx="0.5" cy="0.5" r="0.7">
      <stop offset="0%" stop-color="#fde68a" stop-opacity="0.8" />
      <stop offset="100%" stop-color="#fbbf24" stop-opacity="0" />
    </radialGradient>
  </defs>
  <rect width="640" height="360" rx="32" fill="url(#womenGardenBg)" />
  <circle cx="180" cy="180" r="120" fill="url(#womenGardenPulse)" />
  <g stroke="#f472b6" stroke-width="5" fill="none" stroke-linecap="round">
    <path d="M120 180c60 -100 180 -100 240 0" />
    <path d="M120 200c60 100 180 100 240 0" opacity="0.4" />
    <path d="M420 140c40 30 40 90 0 120" opacity="0.6" />
  </g>
  <g>
    <rect x="360" y="90" width="200" height="180" rx="40" fill="#fff7ed" stroke="#fed7aa" stroke-width="2" />
    <rect x="376" y="118" width="168" height="24" rx="12" fill="#f472b6" opacity="0.8" />
    <rect x="376" y="150" width="140" height="18" rx="9" fill="#fbcfe8" />
    <rect x="376" y="180" width="168" height="18" rx="9" fill="#e0aaff" opacity="0.7" />
    <rect x="376" y="210" width="120" height="18" rx="9" fill="#ede9fe" stroke="#c026d3" stroke-width="1.2" />
    <circle cx="520" cy="214" r="18" fill="#c026d3" opacity="0.55" />
  </g>
  <g>
    <circle cx="180" cy="180" r="78" fill="#fff" opacity="0.85" />
    <path d="M132 180h96" stroke="url(#womenGardenArc)" stroke-width="10" stroke-linecap="round" />
    <path d="M180 132v96" stroke="#f472b6" stroke-width="10" stroke-linecap="round" opacity="0.7" />
    <circle cx="180" cy="180" r="16" fill="#c026d3" opacity="0.7" />
  </g>
  <g fill="#6b21a8" font-family="'Inter','Segoe UI',sans-serif" font-weight="600">
    <text x="60" y="318" font-size="18">Redes de soporte · Mentorías financieras</text>
    <text x="424" y="318" font-size="14" fill="#c026d3">Prevención de recaídas</text>
  </g>
</svg>
