<svg width="640" height="360" viewBox="0 0 640 360" xmlns="http://www.w3.org/2000/svg">
  <defs>
    <linearGradient id="menFlowBg" x1="0" y1="0" x2="1" y2="1">
      <stop offset="0%" stop-color="#0f4c5c" stop-opacity="0.15" />
      <stop offset="100%" stop-color="#14b8a6" stop-opacity="0.25" />
    </linearGradient>
    <linearGradient id="menFlowAccent" x1="0" y1="0" x2="1" y2="1">
      <stop offset="0%" stop-color="#0ea5e9" />
      <stop offset="100%" stop-color="#0f766e" />
    </linearGradient>
  </defs>
  <rect width="640" height="360" rx="32" fill="url(#menFlowBg)" />
  <g fill="none" stroke="#0f4c5c" stroke-opacity="0.25" stroke-width="1.5">
    <rect x="60" y="50" width="520" height="260" rx="28" />
    <path d="M120 60v240" />
    <path d="M520 60v240" />
    <path d="M60 130h520" />
    <path d="M60 230h520" />
  </g>
  <g>
    <circle cx="200" cy="120" r="42" fill="#dbeafe" opacity="0.9" />
    <circle cx="200" cy="120" r="34" fill="#bfdbfe" opacity="0.8" />
    <path d="M170 120h60" stroke="#0f172a" stroke-opacity="0.5" stroke-width="4" stroke-linecap="round" />
    <path d="M200 90v60" stroke="#0f172a" stroke-opacity="0.35" stroke-width="4" stroke-linecap="round" />
  </g>
  <g>
    <rect x="320" y="90" width="120" height="80" rx="16" fill="#ccfbf1" stroke="#0f766e" stroke-width="2" />
    <rect x="328" y="106" width="64" height="12" rx="6" fill="#0f766e" opacity="0.5" />
    <rect x="328" y="128" width="96" height="12" rx="6" fill="#0ea5e9" opacity="0.6" />
    <circle cx="420" cy="106" r="6" fill="#0f172a" opacity="0.35" />
    <circle cx="440" cy="106" r="6" fill="#0f172a" opacity="0.2" />
  </g>
  <g>
    <path d="M220 250c40 -28 90 -28 130 0" fill="none" stroke="url(#menFlowAccent)" stroke-width="10" stroke-linecap="round" />
    <path d="M220 280c40 -25 90 -25 130 0" fill="none" stroke="#14b8a6" stroke-opacity="0.4" stroke-width="10" stroke-linecap="round" />
    <circle cx="220" cy="250" r="10" fill="#0e7490" />
    <circle cx="350" cy="250" r="10" fill="#0ea5e9" />
  </g>
  <g fill="#0f172a" fill-opacity="0.6" font-family="'Inter', 'Segoe UI', sans-serif" font-size="16">
    <text x="92" y="316">Rutinas · Mentorías · Guardias</text>
    <text x="374" y="316" fill="#0e7490">Modelo residencial</text>
  </g>
</svg>
